<svg width="85" height="73" viewBox="0 0 85 73" fill="none" xmlns="http://www.w3.org/2000/svg">
<path d="M22.6818 13.4545H32.4091V45.9091C32.4091 48.9091 31.7348 51.5152 30.3864 53.7273C29.053 55.9394 27.197 57.6439 24.8182 58.8409C22.4394 60.0379 19.6742 60.6364 16.5227 60.6364C13.7197 60.6364 11.1742 60.1439 8.88636 59.1591C6.61364 58.1591 4.81061 56.6439 3.47727 54.6136C2.14394 52.5682 1.48485 50 1.5 46.9091H11.2955C11.3258 48.1364 11.5758 49.1894 12.0455 50.0682C12.5303 50.9318 13.1894 51.5985 14.0227 52.0682C14.8712 52.5227 15.8712 52.75 17.0227 52.75C18.2348 52.75 19.2576 52.4924 20.0909 51.9773C20.9394 51.447 21.5833 50.6742 22.0227 49.6591C22.4621 48.6439 22.6818 47.3939 22.6818 45.9091V13.4545ZM81.6136 29.75H71.6591C71.4773 28.4621 71.1061 27.3182 70.5455 26.3182C69.9849 25.303 69.2652 24.4394 68.3864 23.7273C67.5076 23.0151 66.4924 22.4697 65.3409 22.0909C64.2045 21.7121 62.9697 21.5227 61.6364 21.5227C59.2273 21.5227 57.1288 22.1212 55.3409 23.3182C53.553 24.5 52.1667 26.2273 51.1818 28.5C50.197 30.7576 49.7045 33.5 49.7045 36.7273C49.7045 40.0455 50.197 42.8333 51.1818 45.0909C52.1818 47.3485 53.5758 49.053 55.3636 50.2045C57.1515 51.3561 59.2197 51.9318 61.5682 51.9318C62.8864 51.9318 64.1061 51.7576 65.2273 51.4091C66.3636 51.0606 67.3712 50.553 68.25 49.8864C69.1288 49.2045 69.8561 48.3788 70.4318 47.4091C71.0227 46.4394 71.4318 45.3333 71.6591 44.0909L81.6136 44.1364C81.3561 46.2727 80.7121 48.3333 79.6818 50.3182C78.6667 52.2879 77.2955 54.053 75.5682 55.6136C73.8561 57.1591 71.8106 58.3864 69.4318 59.2955C67.0682 60.1894 64.3939 60.6364 61.4091 60.6364C57.2576 60.6364 53.5455 59.697 50.2727 57.8182C47.0152 55.9394 44.4394 53.2197 42.5455 49.6591C40.6667 46.0985 39.7273 41.7879 39.7273 36.7273C39.7273 31.6515 40.6818 27.3333 42.5909 23.7727C44.5 20.2121 47.0909 17.5 50.3636 15.6364C53.6364 13.7576 57.3182 12.8182 61.4091 12.8182C64.1061 12.8182 66.6061 13.197 68.9091 13.9545C71.2273 14.7121 73.2803 15.8182 75.0682 17.2727C76.8561 18.7121 78.3106 20.4773 79.4318 22.5682C80.5682 24.6591 81.2955 27.053 81.6136 29.75Z" fill="#44EECC"/>
</svg>
